<svg width="22" height="21" viewBox="0 0 22 21" fill="none" xmlns="http://www.w3.org/2000/svg">
<g id="Group 10508">
<rect id="Rectangle" width="21.168" height="21" rx="5" fill="white"/>
<path id="Check mark rounded" d="M8.07853 16.7949C8.23155 16.8548 8.39568 16.8856 8.56141 16.8854C8.72757 16.8857 8.89215 16.855 9.04563 16.7951C9.19912 16.7352 9.33848 16.6473 9.45565 16.5364L19.7998 6.80323L20.16 6.44448C20.16 6.44448 20.1071 5.76236 19.8765 5.12097C19.6306 4.43717 19.3074 4 19.3074 4C19.3074 4 18.1299 5.01286 18.0124 5.12097L8.55866 14.0109L4.18276 9.89394C4.06578 9.78133 3.9262 9.69172 3.77213 9.6303C3.61806 9.56888 3.45256 9.53688 3.28524 9.53615C3.11792 9.53543 2.95211 9.56598 2.79744 9.62606C2.64277 9.68613 2.50232 9.77453 2.38424 9.88611C2.26617 9.99768 2.17281 10.1302 2.10961 10.276C2.0464 10.4219 2.01459 10.578 2.01604 10.7355C2.01748 10.893 2.05215 11.0486 2.11802 11.1934C2.1839 11.3381 2.27967 11.4691 2.39978 11.5788L7.66992 16.5364C7.78662 16.6471 7.92551 16.735 8.07853 16.7949Z" fill="#0E47A1"/>
</g>
</svg>
